<?xml version="1.0" encoding="UTF-8" standalone="no"?>
<svg
   xmlns:dc="http://purl.org/dc/elements/1.1/"
   xmlns:cc="http://creativecommons.org/ns#"
   xmlns:rdf="http://www.w3.org/1999/02/22-rdf-syntax-ns#"
   xmlns:svg="http://www.w3.org/2000/svg"
   xmlns="http://www.w3.org/2000/svg"
   xmlns:sodipodi="http://sodipodi.sourceforge.net/DTD/sodipodi-0.dtd"
   xmlns:inkscape="http://www.inkscape.org/namespaces/inkscape"
   width="192"
   height="192"
   viewBox="0 0 50.799999 50.800001"
   version="1.1"
   id="svg833"
   inkscape:version="1.0.1 (3bc2e813f5, 2020-09-07)"
   sodipodi:docname="icon-launcher.svg">
  <defs
     id="defs827" />
  <sodipodi:namedview
     id="base"
     pagecolor="#000000"
     bordercolor="#666666"
     borderopacity="1.0"
     inkscape:pageopacity="0"
     inkscape:pageshadow="2"
     inkscape:zoom="2.8284271"
     inkscape:cx="53.479594"
     inkscape:cy="89.535554"
     inkscape:document-units="px"
     inkscape:current-layer="layer1"
     showgrid="false"
     units="px"
     inkscape:window-width="1920"
     inkscape:window-height="1015"
     inkscape:window-x="0"
     inkscape:window-y="28"
     inkscape:window-maximized="1"
     inkscape:snap-global="true"
     inkscape:document-rotation="0"
     inkscape:pagecheckerboard="true"
     showguides="false"
     inkscape:guide-bbox="true">
    <sodipodi:guide
       position="10.583333,34.336198"
       orientation="-1,0"
       id="guide904"
       inkscape:label=""
       inkscape:locked="false"
       inkscape:color="rgb(0,0,255)" />
    <sodipodi:guide
       position="40.216667,57.067472"
       orientation="-1,0"
       id="guide906"
       inkscape:label=""
       inkscape:locked="false"
       inkscape:color="rgb(0,0,255)" />
    <sodipodi:guide
       position="63.984324,40.216667"
       orientation="0,1"
       id="guide908"
       inkscape:label=""
       inkscape:locked="false"
       inkscape:color="rgb(0,0,255)" />
    <sodipodi:guide
       position="60.523184,10.583333"
       orientation="0,1"
       id="guide910"
       inkscape:label=""
       inkscape:locked="false"
       inkscape:color="rgb(0,0,255)" />
  </sodipodi:namedview>
  <metadata
     id="metadata830">
    <rdf:RDF>
      <cc:Work
         rdf:about="">
        <dc:format>image/svg+xml</dc:format>
        <dc:type
           rdf:resource="http://purl.org/dc/dcmitype/StillImage" />
        <dc:title />
      </cc:Work>
    </rdf:RDF>
  </metadata>
  <g
     inkscape:label="Layer 1"
     inkscape:groupmode="layer"
     id="layer1"
     transform="translate(0,-246.19998)">
    <path
       inkscape:connector-curvature="0"
       style="fill:#ffffff;fill-opacity:1;stroke:none;stroke-width:2.51593;stroke-linecap:round;stroke-linejoin:round;stroke-miterlimit:4;stroke-dasharray:none;stroke-opacity:0.188235;paint-order:fill markers stroke"
       d="m 10.583334,251.49164 h 29.633333 c 2.931583,0 5.291667,2.36008 5.291667,5.29167 v 29.63333 c 0,2.93158 -2.360084,5.29167 -5.291667,5.29167 H 10.583334 c -2.9315833,0 -5.2916663,-2.36009 -5.2916663,-5.29167 v -29.63333 c 0,-2.93159 2.360083,-5.29167 5.2916663,-5.29167 z"
       id="rect815" />
    <path
       inkscape:connector-curvature="0"
       style="fill:#f44336;fill-opacity:1;stroke:none;stroke-width:0.496563;stroke-linecap:round;stroke-linejoin:round;stroke-miterlimit:4;stroke-dasharray:none;stroke-opacity:0.188235;paint-order:fill markers stroke"
       d="m 11.627741,256.78331 h 5.848683 c 0.578603,0 1.044409,0.46581 1.044409,1.0444 v 5.84869 c 0,0.5786 -0.465806,1.04441 -1.044409,1.04441 h -5.848683 c -0.578603,0 -1.044408,-0.46581 -1.044408,-1.04441 v -5.84869 c 0,-0.57859 0.465805,-1.0444 1.044408,-1.0444 z"
       id="path868" />
    <path
       inkscape:connector-curvature="0"
       style="fill:#00bcd4;fill-opacity:1;stroke:none;stroke-width:0.496563;stroke-linecap:round;stroke-linejoin:round;stroke-miterlimit:4;stroke-dasharray:none;stroke-opacity:0.188235;paint-order:fill markers stroke"
       d="m 22.475658,256.78331 h 5.848683 c 0.578603,0 1.044409,0.46581 1.044409,1.0444 v 5.84869 c 0,0.5786 -0.465806,1.04441 -1.044409,1.04441 h -5.848683 c -0.578603,0 -1.044408,-0.46581 -1.044408,-1.04441 v -5.84869 c 0,-0.57859 0.465805,-1.0444 1.044408,-1.0444 z"
       id="path960" />
    <path
       inkscape:connector-curvature="0"
       style="fill:#cddc39;fill-opacity:1;stroke:none;stroke-width:0.496563;stroke-linecap:round;stroke-linejoin:round;stroke-miterlimit:4;stroke-dasharray:none;stroke-opacity:0.188235;paint-order:fill markers stroke"
       d="m 11.627741,278.47915 h 5.848683 c 0.578603,0 1.044409,0.46581 1.044409,1.0444 v 5.84869 c 0,0.5786 -0.465806,1.04441 -1.044409,1.04441 h -5.848683 c -0.578603,0 -1.044408,-0.46581 -1.044408,-1.04441 v -5.84869 c 0,-0.57859 0.465805,-1.0444 1.044408,-1.0444 z"
       id="path964" />
    <path
       inkscape:connector-curvature="0"
       style="fill:#009688;fill-opacity:1;stroke:none;stroke-width:0.496563;stroke-linecap:round;stroke-linejoin:round;stroke-miterlimit:4;stroke-dasharray:none;stroke-opacity:0.188235;paint-order:fill markers stroke"
       d="m 11.627741,267.63123 h 5.848683 c 0.578603,0 1.044409,0.46581 1.044409,1.0444 v 5.84869 c 0,0.5786 -0.465806,1.04441 -1.044409,1.04441 h -5.848683 c -0.578603,0 -1.044408,-0.46581 -1.044408,-1.04441 v -5.84869 c 0,-0.57859 0.465805,-1.0444 1.044408,-1.0444 z"
       id="path966" />
    <path
       inkscape:connector-curvature="0"
       style="fill:#f44336;fill-opacity:1;stroke:none;stroke-width:0.496563;stroke-linecap:round;stroke-linejoin:round;stroke-miterlimit:4;stroke-dasharray:none;stroke-opacity:0.188235;paint-order:fill markers stroke"
       d="m 22.475658,267.63123 h 5.848683 c 0.578603,0 1.044409,0.46581 1.044409,1.0444 v 5.84869 c 0,0.5786 -0.465806,1.04441 -1.044409,1.04441 h -5.848683 c -0.578603,0 -1.044408,-0.46581 -1.044408,-1.04441 v -5.84869 c 0,-0.57859 0.465805,-1.0444 1.044408,-1.0444 z"
       id="path968" />
    <path
       inkscape:connector-curvature="0"
       style="fill:#f9ce1d;fill-opacity:1;stroke:none;stroke-width:0.496563;stroke-linecap:round;stroke-linejoin:round;stroke-miterlimit:4;stroke-dasharray:none;stroke-opacity:0.188235;paint-order:fill markers stroke"
       d="m 33.323575,267.63123 h 5.848683 c 0.578603,0 1.044409,0.46581 1.044409,1.0444 v 5.84869 c 0,0.5786 -0.465806,1.04441 -1.044409,1.04441 h -5.848683 c -0.578603,0 -1.044408,-0.46581 -1.044408,-1.04441 v -5.84869 c 0,-0.57859 0.465805,-1.0444 1.044408,-1.0444 z"
       id="path970" />
    <path
       inkscape:connector-curvature="0"
       style="fill:#795548;fill-opacity:1;stroke:none;stroke-width:0.496563;stroke-linecap:round;stroke-linejoin:round;stroke-miterlimit:4;stroke-dasharray:none;stroke-opacity:0.188235;paint-order:fill markers stroke"
       d="m 33.323575,278.47915 h 5.848683 c 0.578603,0 1.044409,0.46581 1.044409,1.0444 v 5.84869 c 0,0.5786 -0.465806,1.04441 -1.044409,1.04441 h -5.848683 c -0.578603,0 -1.044408,-0.46581 -1.044408,-1.04441 v -5.84869 c 0,-0.57859 0.465805,-1.0444 1.044408,-1.0444 z"
       id="path974" />
  </g>
</svg>
