<?xml version="1.0" encoding="UTF-8" standalone="no"?>
<svg
   xmlns:dc="http://purl.org/dc/elements/1.1/"
   xmlns:cc="http://creativecommons.org/ns#"
   xmlns:rdf="http://www.w3.org/1999/02/22-rdf-syntax-ns#"
   xmlns:svg="http://www.w3.org/2000/svg"
   xmlns="http://www.w3.org/2000/svg"
   xmlns:sodipodi="http://sodipodi.sourceforge.net/DTD/sodipodi-0.dtd"
   xmlns:inkscape="http://www.inkscape.org/namespaces/inkscape"
   width="192"
   height="192"
   viewBox="0 0 50.799999 50.800001"
   version="1.1"
   id="svg833"
   inkscape:version="1.0.2-2 (e86c870879, 2021-01-15)"
   sodipodi:docname="icon-launcher-round.svg">
  <defs
     id="defs827" />
  <sodipodi:namedview
     id="base"
     pagecolor="#000000"
     bordercolor="#666666"
     borderopacity="1.0"
     inkscape:pageopacity="0"
     inkscape:pageshadow="2"
     inkscape:zoom="2.9423369"
     inkscape:cx="82.444153"
     inkscape:cy="84.631595"
     inkscape:document-units="px"
     inkscape:current-layer="layer1"
     showgrid="false"
     units="px"
     inkscape:window-width="1920"
     inkscape:window-height="1017"
     inkscape:window-x="-8"
     inkscape:window-y="-8"
     inkscape:window-maximized="1"
     inkscape:snap-global="false"
     inkscape:document-rotation="0"
     inkscape:pagecheckerboard="true" />
  <metadata
     id="metadata830">
    <rdf:RDF>
      <cc:Work
         rdf:about="">
        <dc:format>image/svg+xml</dc:format>
        <dc:type
           rdf:resource="http://purl.org/dc/dcmitype/StillImage" />
        <dc:title />
      </cc:Work>
    </rdf:RDF>
  </metadata>
  <g
     inkscape:label="Layer 1"
     inkscape:groupmode="layer"
     id="layer1"
     transform="translate(0,-246.19998)">
    <path
       id="rect815"
       style="fill:#ffffff;fill-opacity:1;stroke:none;stroke-width:9.50903;stroke-linecap:round;stroke-linejoin:round;stroke-miterlimit:4;stroke-dasharray:none;stroke-opacity:0.188235;paint-order:fill markers stroke"
       d="M 96 20 A 76.000003 76.000003 0 0 0 20 96 A 76.000003 76.000003 0 0 0 96 172 A 76.000003 76.000003 0 0 0 172 96 A 76.000003 76.000003 0 0 0 96 20 z "
       transform="matrix(0.26458333,0,0,0.26458333,0,246.19998)" />
    <path
       inkscape:connector-curvature="0"
       style="fill:#e74c3c;fill-opacity:1;stroke:none;stroke-width:0.434493;stroke-linecap:round;stroke-linejoin:round;stroke-miterlimit:4;stroke-dasharray:none;stroke-opacity:0.188235;paint-order:fill markers stroke"
       d="m 13.349274,258.6354 h 5.117598 c 0.506277,0 0.913857,0.40758 0.913857,0.91385 v 5.1176 c 0,0.50627 -0.40758,0.91386 -0.913857,0.91386 h -5.117598 c -0.506278,0 -0.913857,-0.40759 -0.913857,-0.91386 v -5.1176 c 0,-0.50627 0.407579,-0.91385 0.913857,-0.91385 z"
       id="path868" />
    <path
       inkscape:connector-curvature="0"
       style="fill:#3498db;fill-opacity:1;stroke:none;stroke-width:0.434493;stroke-linecap:round;stroke-linejoin:round;stroke-miterlimit:4;stroke-dasharray:none;stroke-opacity:0.188235;paint-order:fill markers stroke"
       d="m 22.841201,258.6354 h 5.117598 c 0.506277,0 0.913858,0.40758 0.913858,0.91385 v 5.1176 c 0,0.50627 -0.407581,0.91386 -0.913858,0.91386 h -5.117598 c -0.506277,0 -0.913857,-0.40759 -0.913857,-0.91386 v -5.1176 c 0,-0.50627 0.40758,-0.91385 0.913857,-0.91385 z"
       id="path960" />
    <path
       inkscape:connector-curvature="0"
       style="fill:#f1c40f;fill-opacity:1;stroke:none;stroke-width:0.434493;stroke-linecap:round;stroke-linejoin:round;stroke-miterlimit:4;stroke-dasharray:none;stroke-opacity:0.188235;paint-order:fill markers stroke"
       d="m 13.349274,277.61925 h 5.117598 c 0.506277,0 0.913857,0.40759 0.913857,0.91385 v 5.11761 c 0,0.50627 -0.40758,0.91385 -0.913857,0.91385 h -5.117598 c -0.506278,0 -0.913857,-0.40758 -0.913857,-0.91385 v -5.11761 c 0,-0.50626 0.407579,-0.91385 0.913857,-0.91385 z"
       id="path964" />
    <path
       inkscape:connector-curvature="0"
       style="fill:#16a085;fill-opacity:1;stroke:none;stroke-width:0.434493;stroke-linecap:round;stroke-linejoin:round;stroke-miterlimit:4;stroke-dasharray:none;stroke-opacity:0.188235;paint-order:fill markers stroke"
       d="m 13.349274,268.12732 h 5.117598 c 0.506277,0 0.913857,0.40759 0.913857,0.91385 v 5.11761 c 0,0.50627 -0.40758,0.91386 -0.913857,0.91386 h -5.117598 c -0.506278,0 -0.913857,-0.40759 -0.913857,-0.91386 v -5.11761 c 0,-0.50626 0.407579,-0.91385 0.913857,-0.91385 z"
       id="path966" />
    <path
       inkscape:connector-curvature="0"
       style="fill:#e74c3c;fill-opacity:1;stroke:none;stroke-width:0.434493;stroke-linecap:round;stroke-linejoin:round;stroke-miterlimit:4;stroke-dasharray:none;stroke-opacity:0.188235;paint-order:fill markers stroke"
       d="m 22.841201,268.12732 h 5.117598 c 0.506277,0 0.913858,0.40759 0.913858,0.91385 v 5.11761 c 0,0.50627 -0.407581,0.91386 -0.913858,0.91386 h -5.117598 c -0.506277,0 -0.913857,-0.40759 -0.913857,-0.91386 v -5.11761 c 0,-0.50626 0.40758,-0.91385 0.913857,-0.91385 z"
       id="path968" />
    <path
       inkscape:connector-curvature="0"
       style="fill:#d35400;fill-opacity:1;stroke:none;stroke-width:0.434493;stroke-linecap:round;stroke-linejoin:round;stroke-miterlimit:4;stroke-dasharray:none;stroke-opacity:0.188235;paint-order:fill markers stroke"
       d="m 32.333128,268.12732 h 5.117598 c 0.506278,0 0.913858,0.40759 0.913858,0.91385 v 5.11761 c 0,0.50627 -0.40758,0.91386 -0.913858,0.91386 h -5.117598 c -0.506277,0 -0.913857,-0.40759 -0.913857,-0.91386 v -5.11761 c 0,-0.50626 0.40758,-0.91385 0.913857,-0.91385 z"
       id="path970" />
    <path
       inkscape:connector-curvature="0"
       style="fill:#2c3e50;fill-opacity:1;stroke:none;stroke-width:0.434493;stroke-linecap:round;stroke-linejoin:round;stroke-miterlimit:4;stroke-dasharray:none;stroke-opacity:0.188235;paint-order:fill markers stroke"
       d="m 32.333128,277.61925 h 5.117598 c 0.506278,0 0.913858,0.40759 0.913858,0.91385 v 5.11761 c 0,0.50627 -0.40758,0.91385 -0.913858,0.91385 h -5.117598 c -0.506277,0 -0.913857,-0.40758 -0.913857,-0.91385 v -5.11761 c 0,-0.50626 0.40758,-0.91385 0.913857,-0.91385 z"
       id="path974" />
  </g>
</svg>
