<?xml version="1.0" encoding="UTF-8" standalone="no"?>
<svg
   xmlns:dc="http://purl.org/dc/elements/1.1/"
   xmlns:cc="http://creativecommons.org/ns#"
   xmlns:rdf="http://www.w3.org/1999/02/22-rdf-syntax-ns#"
   xmlns:svg="http://www.w3.org/2000/svg"
   xmlns="http://www.w3.org/2000/svg"
   xmlns:sodipodi="http://sodipodi.sourceforge.net/DTD/sodipodi-0.dtd"
   xmlns:inkscape="http://www.inkscape.org/namespaces/inkscape"
   width="108"
   height="108"
   viewBox="0 0 28.574999 28.575001"
   version="1.1"
   id="svg867"
   sodipodi:docname="icon-adaptative-foreground.svg"
   inkscape:version="1.0.2-2 (e86c870879, 2021-01-15)">
  <defs
     id="defs861" />
  <sodipodi:namedview
     id="base"
     pagecolor="#ffffff"
     bordercolor="#666666"
     borderopacity="1.0"
     inkscape:pageopacity="0.0"
     inkscape:pageshadow="2"
     inkscape:zoom="2.8"
     inkscape:cx="62.392899"
     inkscape:cy="53.894616"
     inkscape:document-units="px"
     inkscape:current-layer="layer1"
     showgrid="false"
     units="px"
     inkscape:window-width="1920"
     inkscape:window-height="1017"
     inkscape:window-x="-8"
     inkscape:window-y="-8"
     inkscape:window-maximized="1"
     showguides="true"
     inkscape:guide-bbox="true"
     inkscape:document-rotation="0">
    <sodipodi:guide
       position="4.7625,19.644311"
       orientation="1,0"
       id="guide851"
       inkscape:locked="false"
       inkscape:label=""
       inkscape:color="rgb(0,0,255)" />
    <sodipodi:guide
       position="-19.711127,4.7625"
       orientation="0,1"
       id="guide853"
       inkscape:locked="false"
       inkscape:label=""
       inkscape:color="rgb(0,0,255)" />
    <sodipodi:guide
       position="-20.91384,23.8125"
       orientation="0,1"
       id="guide855"
       inkscape:locked="false"
       inkscape:label=""
       inkscape:color="rgb(0,0,255)" />
    <sodipodi:guide
       position="23.8125,33.488692"
       orientation="-1,0"
       id="guide836"
       inkscape:label=""
       inkscape:locked="false"
       inkscape:color="rgb(0,0,255)" />
  </sodipodi:namedview>
  <metadata
     id="metadata864">
    <rdf:RDF>
      <cc:Work
         rdf:about="">
        <dc:format>image/svg+xml</dc:format>
        <dc:type
           rdf:resource="http://purl.org/dc/dcmitype/StillImage" />
        <dc:title />
      </cc:Work>
    </rdf:RDF>
  </metadata>
  <g
     inkscape:label="Layer 1"
     inkscape:groupmode="layer"
     id="layer1"
     transform="translate(0,-268.42498)">
    <path
       inkscape:connector-curvature="0"
       style="fill:#e74c3c;fill-opacity:1;stroke:none;stroke-width:0.212813;stroke-linecap:round;stroke-linejoin:round;stroke-miterlimit:4;stroke-dasharray:none;stroke-opacity:0.188235;paint-order:fill markers stroke"
       d="m 8.3851033,276.36248 h 2.5065787 c 0.247972,0 0.447603,0.19963 0.447603,0.4476 v 2.50658 c 0,0.24797 -0.199631,0.4476 -0.447603,0.4476 H 8.3851033 c -0.2479728,0 -0.4476035,-0.19963 -0.4476035,-0.4476 v -2.50658 c 0,-0.24797 0.1996307,-0.4476 0.4476035,-0.4476 z"
       id="path868" />
    <path
       inkscape:connector-curvature="0"
       style="fill:#3498db;fill-opacity:1;stroke:none;stroke-width:0.212813;stroke-linecap:round;stroke-linejoin:round;stroke-miterlimit:4;stroke-dasharray:none;stroke-opacity:0.188235;paint-order:fill markers stroke"
       d="m 13.03421,276.36248 h 2.506579 c 0.247973,0 0.447604,0.19963 0.447604,0.4476 v 2.50658 c 0,0.24797 -0.199631,0.4476 -0.447604,0.4476 H 13.03421 c -0.247972,0 -0.447603,-0.19963 -0.447603,-0.4476 v -2.50658 c 0,-0.24797 0.199631,-0.4476 0.447603,-0.4476 z"
       id="path960" />
    <path
       inkscape:connector-curvature="0"
       style="fill:#f1c40f;fill-opacity:1;stroke:none;stroke-width:0.212813;stroke-linecap:round;stroke-linejoin:round;stroke-miterlimit:4;stroke-dasharray:none;stroke-opacity:0.188235;paint-order:fill markers stroke"
       d="m 8.3851033,285.66069 h 2.5065787 c 0.247972,0 0.447603,0.19964 0.447603,0.4476 v 2.50659 c 0,0.24797 -0.199631,0.4476 -0.447603,0.4476 H 8.3851033 c -0.2479728,0 -0.4476035,-0.19963 -0.4476035,-0.4476 v -2.50659 c 0,-0.24796 0.1996307,-0.4476 0.4476035,-0.4476 z"
       id="path964" />
    <path
       inkscape:connector-curvature="0"
       style="fill:#16a085;fill-opacity:1;stroke:none;stroke-width:0.212813;stroke-linecap:round;stroke-linejoin:round;stroke-miterlimit:4;stroke-dasharray:none;stroke-opacity:0.188235;paint-order:fill markers stroke"
       d="m 8.3851033,281.01159 h 2.5065787 c 0.247972,0 0.447603,0.19963 0.447603,0.4476 v 2.50658 c 0,0.24797 -0.199631,0.4476 -0.447603,0.4476 H 8.3851033 c -0.2479728,0 -0.4476035,-0.19963 -0.4476035,-0.4476 v -2.50658 c 0,-0.24797 0.1996307,-0.4476 0.4476035,-0.4476 z"
       id="path966" />
    <path
       inkscape:connector-curvature="0"
       style="fill:#e74c3c;fill-opacity:1;stroke:none;stroke-width:0.212813;stroke-linecap:round;stroke-linejoin:round;stroke-miterlimit:4;stroke-dasharray:none;stroke-opacity:0.188235;paint-order:fill markers stroke"
       d="m 13.03421,281.01159 h 2.506579 c 0.247973,0 0.447604,0.19963 0.447604,0.4476 v 2.50658 c 0,0.24797 -0.199631,0.4476 -0.447604,0.4476 H 13.03421 c -0.247972,0 -0.447603,-0.19963 -0.447603,-0.4476 v -2.50658 c 0,-0.24797 0.199631,-0.4476 0.447603,-0.4476 z"
       id="path968" />
    <path
       inkscape:connector-curvature="0"
       style="fill:#d35400;fill-opacity:1;stroke:none;stroke-width:0.212813;stroke-linecap:round;stroke-linejoin:round;stroke-miterlimit:4;stroke-dasharray:none;stroke-opacity:0.188235;paint-order:fill markers stroke"
       d="m 17.683318,281.01159 h 2.506578 c 0.247973,0 0.447604,0.19963 0.447604,0.4476 v 2.50658 c 0,0.24797 -0.199631,0.4476 -0.447604,0.4476 h -2.506578 c -0.247973,0 -0.447604,-0.19963 -0.447604,-0.4476 v -2.50658 c 0,-0.24797 0.199631,-0.4476 0.447604,-0.4476 z"
       id="path970" />
    <path
       inkscape:connector-curvature="0"
       style="fill:#2c3e50;fill-opacity:1;stroke:none;stroke-width:0.212813;stroke-linecap:round;stroke-linejoin:round;stroke-miterlimit:4;stroke-dasharray:none;stroke-opacity:0.188235;paint-order:fill markers stroke"
       d="m 17.683318,285.66069 h 2.506578 c 0.247973,0 0.447604,0.19964 0.447604,0.4476 v 2.50659 c 0,0.24797 -0.199631,0.4476 -0.447604,0.4476 h -2.506578 c -0.247973,0 -0.447604,-0.19963 -0.447604,-0.4476 v -2.50659 c 0,-0.24796 0.199631,-0.4476 0.447604,-0.4476 z"
       id="path974" />
  </g>
</svg>
