<?xml version="1.0" encoding="UTF-8" standalone="no"?>
<svg
   xmlns:dc="http://purl.org/dc/elements/1.1/"
   xmlns:cc="http://creativecommons.org/ns#"
   xmlns:rdf="http://www.w3.org/1999/02/22-rdf-syntax-ns#"
   xmlns:svg="http://www.w3.org/2000/svg"
   xmlns="http://www.w3.org/2000/svg"
   xmlns:sodipodi="http://sodipodi.sourceforge.net/DTD/sodipodi-0.dtd"
   xmlns:inkscape="http://www.inkscape.org/namespaces/inkscape"
   width="192"
   height="192"
   viewBox="0 0 50.799999 50.800001"
   version="1.1"
   id="svg833"
   inkscape:version="1.0.1 (3bc2e813f5, 2020-09-07)"
   sodipodi:docname="icon_launcher_round.svg">
  <defs
     id="defs827" />
  <sodipodi:namedview
     id="base"
     pagecolor="#ffffff"
     bordercolor="#666666"
     borderopacity="1.0"
     inkscape:pageopacity="0.0"
     inkscape:pageshadow="2"
     inkscape:zoom="2.9423369"
     inkscape:cx="87.882008"
     inkscape:cy="96.526902"
     inkscape:document-units="px"
     inkscape:current-layer="layer1"
     showgrid="false"
     units="px"
     inkscape:window-width="1920"
     inkscape:window-height="1015"
     inkscape:window-x="0"
     inkscape:window-y="28"
     inkscape:window-maximized="1"
     inkscape:snap-global="false"
     inkscape:document-rotation="0" />
  <metadata
     id="metadata830">
    <rdf:RDF>
      <cc:Work
         rdf:about="">
        <dc:format>image/svg+xml</dc:format>
        <dc:type
           rdf:resource="http://purl.org/dc/dcmitype/StillImage" />
        <dc:title></dc:title>
      </cc:Work>
    </rdf:RDF>
  </metadata>
  <g
     inkscape:label="Layer 1"
     inkscape:groupmode="layer"
     id="layer1"
     transform="translate(0,-246.19998)">
    <path
       id="rect815"
       style="fill:#fbc02d;fill-opacity:1;stroke:none;stroke-width:9.50903;stroke-linecap:round;stroke-linejoin:round;stroke-miterlimit:4;stroke-dasharray:none;stroke-opacity:0.188235;paint-order:fill markers stroke"
       d="M 96 20 A 76.000003 76.000003 0 0 0 20 96 A 76.000003 76.000003 0 0 0 96 172 A 76.000003 76.000003 0 0 0 172 96 A 76.000003 76.000003 0 0 0 96 20 z "
       transform="matrix(0.26458333,0,0,0.26458333,0,246.19998)" />
    <path
       id="rect818"
       style="fill:#ffeb3b;fill-opacity:1;stroke:none;stroke-width:18.0589;stroke-linecap:round;stroke-linejoin:round;stroke-miterlimit:4;stroke-dasharray:none;stroke-opacity:0.188235;paint-order:fill markers stroke"
       d="M 20.423828 104 A 76.000003 76.000003 0 0 0 96 172 A 76.000003 76.000003 0 0 0 171.57812 104 L 20.423828 104 z "
       transform="matrix(0.26458333,0,0,0.26458333,0,246.19998)" />
    <path
       id="rect822"
       style="fill:#03a9f4;fill-opacity:1;stroke:none;stroke-width:8.04416;stroke-linecap:round;stroke-linejoin:round;stroke-miterlimit:4;stroke-dasharray:none;stroke-opacity:0.188235;paint-order:fill markers stroke"
       d="M 52.044922 34 A 76.000003 76.000003 0 0 0 20 96 A 76.000003 76.000003 0 0 0 52.044922 158 L 84.773438 158 L 156.90234 141.46094 A 76.000003 76.000003 0 0 0 172 96 A 76.000003 76.000003 0 0 0 139.95508 34 L 52.044922 34 z "
       transform="matrix(0.26458333,0,0,0.26458333,0,246.19998)" />
    <path
       id="path1442"
       style="fill:#0288d1;fill-opacity:1;stroke:none;stroke-width:8.04416;stroke-linecap:round;stroke-linejoin:round;stroke-miterlimit:4;stroke-dasharray:none;stroke-opacity:0.188235;paint-order:fill markers stroke"
       d="M 152.99219 126.60352 C 150.39455 126.72664 147.78133 127.36703 145.29297 128.58398 L 84.853516 158 L 156.88672 141.48438 A 76.000003 76.000003 0 0 0 164.23633 129.45898 C 160.86058 127.43733 156.94717 126.41606 152.99219 126.60352 z "
       transform="matrix(0.26458333,0,0,0.26458333,0,246.19998)" />
    <path
       style="color:#000000;font-style:normal;font-variant:normal;font-weight:normal;font-stretch:normal;font-size:medium;line-height:normal;font-family:sans-serif;font-variant-ligatures:normal;font-variant-position:normal;font-variant-caps:normal;font-variant-numeric:normal;font-variant-alternates:normal;font-feature-settings:normal;text-indent:0;text-align:start;text-decoration:none;text-decoration-line:none;text-decoration-style:solid;text-decoration-color:#000000;letter-spacing:normal;word-spacing:normal;text-transform:none;writing-mode:lr-tb;direction:ltr;text-orientation:mixed;dominant-baseline:auto;baseline-shift:baseline;text-anchor:start;white-space:normal;shape-padding:0;clip-rule:nonzero;display:inline;overflow:visible;visibility:visible;isolation:auto;mix-blend-mode:normal;color-interpolation:sRGB;color-interpolation-filters:linearRGB;solid-color:#000000;solid-opacity:1;vector-effect:none;fill:#ffffff;fill-opacity:1;fill-rule:nonzero;stroke:none;stroke-width:2.6516;stroke-linecap:butt;stroke-linejoin:miter;stroke-miterlimit:4;stroke-dasharray:none;stroke-dashoffset:0;stroke-opacity:1;color-rendering:auto;image-rendering:auto;shape-rendering:auto;text-rendering:auto;enable-background:accumulate"
       d="m 33.090303,264.09485 -10.949134,9.93409 -4.772472,-4.49923 -0.168258,2.50114 5.237841,7.07426 11.161282,-13.31411 z"
       id="path1461"
       inkscape:connector-curvature="0"
       sodipodi:nodetypes="ccccccc" />
  </g>
</svg>
