<?xml version="1.0" encoding="UTF-8" standalone="no"?>
<svg
   xmlns:dc="http://purl.org/dc/elements/1.1/"
   xmlns:cc="http://creativecommons.org/ns#"
   xmlns:rdf="http://www.w3.org/1999/02/22-rdf-syntax-ns#"
   xmlns:svg="http://www.w3.org/2000/svg"
   xmlns="http://www.w3.org/2000/svg"
   xmlns:sodipodi="http://sodipodi.sourceforge.net/DTD/sodipodi-0.dtd"
   xmlns:inkscape="http://www.inkscape.org/namespaces/inkscape"
   width="192"
   height="192"
   viewBox="0 0 50.799999 50.800001"
   version="1.1"
   id="svg833"
   inkscape:version="1.0.1 (3bc2e813f5, 2020-09-07)"
   sodipodi:docname="icon-launcher-round.svg">
  <defs
     id="defs827" />
  <sodipodi:namedview
     id="base"
     pagecolor="#000000"
     bordercolor="#666666"
     borderopacity="1.0"
     inkscape:pageopacity="0"
     inkscape:pageshadow="2"
     inkscape:zoom="2.9423369"
     inkscape:cx="82.444153"
     inkscape:cy="84.631595"
     inkscape:document-units="px"
     inkscape:current-layer="layer1"
     showgrid="false"
     units="px"
     inkscape:window-width="1920"
     inkscape:window-height="1017"
     inkscape:window-x="-8"
     inkscape:window-y="-8"
     inkscape:window-maximized="1"
     inkscape:snap-global="false"
     inkscape:document-rotation="0"
     inkscape:pagecheckerboard="true" />
  <metadata
     id="metadata830">
    <rdf:RDF>
      <cc:Work
         rdf:about="">
        <dc:format>image/svg+xml</dc:format>
        <dc:type
           rdf:resource="http://purl.org/dc/dcmitype/StillImage" />
        <dc:title></dc:title>
      </cc:Work>
    </rdf:RDF>
  </metadata>
  <g
     inkscape:label="Layer 1"
     inkscape:groupmode="layer"
     id="layer1"
     transform="translate(0,-246.19998)">
    <path
       id="rect815"
       style="fill:#ffffff;fill-opacity:1;stroke:none;stroke-width:9.50903;stroke-linecap:round;stroke-linejoin:round;stroke-miterlimit:4;stroke-dasharray:none;stroke-opacity:0.188235;paint-order:fill markers stroke"
       d="M 96 20 A 76.000003 76.000003 0 0 0 20 96 A 76.000003 76.000003 0 0 0 96 172 A 76.000003 76.000003 0 0 0 172 96 A 76.000003 76.000003 0 0 0 96 20 z "
       transform="matrix(0.26458333,0,0,0.26458333,0,246.19998)" />
    <g
       id="g872"
       transform="matrix(0.87499998,0,0,0.8749998,39.720216,28.164081)">
      <path
         inkscape:connector-curvature="0"
         style="fill:#f44336;fill-opacity:1;stroke:none;stroke-width:0.496563;stroke-linecap:round;stroke-linejoin:round;stroke-miterlimit:4;stroke-dasharray:none;stroke-opacity:0.188235;paint-order:fill markers stroke"
         d="m -30.13822,263.39585 h 5.848683 c 0.578603,0 1.044409,0.46581 1.044409,1.0444 v 5.84869 c 0,0.5786 -0.465806,1.04441 -1.044409,1.04441 h -5.848683 c -0.578603,0 -1.044408,-0.46581 -1.044408,-1.04441 v -5.84869 c 0,-0.57859 0.465805,-1.0444 1.044408,-1.0444 z"
         id="path868" />
      <path
         inkscape:connector-curvature="0"
         style="fill:#00bcd4;fill-opacity:1;stroke:none;stroke-width:0.496563;stroke-linecap:round;stroke-linejoin:round;stroke-miterlimit:4;stroke-dasharray:none;stroke-opacity:0.188235;paint-order:fill markers stroke"
         d="m -19.290303,263.39585 h 5.848683 c 0.578603,0 1.044409,0.46581 1.044409,1.0444 v 5.84869 c 0,0.5786 -0.465806,1.04441 -1.044409,1.04441 h -5.848683 c -0.578603,0 -1.044408,-0.46581 -1.044408,-1.04441 v -5.84869 c 0,-0.57859 0.465805,-1.0444 1.044408,-1.0444 z"
         id="path960" />
      <path
         inkscape:connector-curvature="0"
         style="fill:#cddc39;fill-opacity:1;stroke:none;stroke-width:0.496563;stroke-linecap:round;stroke-linejoin:round;stroke-miterlimit:4;stroke-dasharray:none;stroke-opacity:0.188235;paint-order:fill markers stroke"
         d="m -30.13822,285.09169 h 5.848683 c 0.578603,0 1.044409,0.46581 1.044409,1.0444 v 5.84869 c 0,0.5786 -0.465806,1.04441 -1.044409,1.04441 h -5.848683 c -0.578603,0 -1.044408,-0.46581 -1.044408,-1.04441 v -5.84869 c 0,-0.57859 0.465805,-1.0444 1.044408,-1.0444 z"
         id="path964" />
      <path
         inkscape:connector-curvature="0"
         style="fill:#009688;fill-opacity:1;stroke:none;stroke-width:0.496563;stroke-linecap:round;stroke-linejoin:round;stroke-miterlimit:4;stroke-dasharray:none;stroke-opacity:0.188235;paint-order:fill markers stroke"
         d="m -30.13822,274.24377 h 5.848683 c 0.578603,0 1.044409,0.46581 1.044409,1.0444 v 5.84869 c 0,0.5786 -0.465806,1.04441 -1.044409,1.04441 h -5.848683 c -0.578603,0 -1.044408,-0.46581 -1.044408,-1.04441 v -5.84869 c 0,-0.57859 0.465805,-1.0444 1.044408,-1.0444 z"
         id="path966" />
      <path
         inkscape:connector-curvature="0"
         style="fill:#f44336;fill-opacity:1;stroke:none;stroke-width:0.496563;stroke-linecap:round;stroke-linejoin:round;stroke-miterlimit:4;stroke-dasharray:none;stroke-opacity:0.188235;paint-order:fill markers stroke"
         d="m -19.290303,274.24377 h 5.848683 c 0.578603,0 1.044409,0.46581 1.044409,1.0444 v 5.84869 c 0,0.5786 -0.465806,1.04441 -1.044409,1.04441 h -5.848683 c -0.578603,0 -1.044408,-0.46581 -1.044408,-1.04441 v -5.84869 c 0,-0.57859 0.465805,-1.0444 1.044408,-1.0444 z"
         id="path968" />
      <path
         inkscape:connector-curvature="0"
         style="fill:#f9ce1d;fill-opacity:1;stroke:none;stroke-width:0.496563;stroke-linecap:round;stroke-linejoin:round;stroke-miterlimit:4;stroke-dasharray:none;stroke-opacity:0.188235;paint-order:fill markers stroke"
         d="m -8.442386,274.24377 h 5.848683 c 0.578603,0 1.044409,0.46581 1.044409,1.0444 v 5.84869 c 0,0.5786 -0.465806,1.04441 -1.044409,1.04441 h -5.848683 c -0.578603,0 -1.044408,-0.46581 -1.044408,-1.04441 v -5.84869 c 0,-0.57859 0.465805,-1.0444 1.044408,-1.0444 z"
         id="path970" />
      <path
         inkscape:connector-curvature="0"
         style="fill:#795548;fill-opacity:1;stroke:none;stroke-width:0.496563;stroke-linecap:round;stroke-linejoin:round;stroke-miterlimit:4;stroke-dasharray:none;stroke-opacity:0.188235;paint-order:fill markers stroke"
         d="m -8.442386,285.09169 h 5.848683 c 0.578603,0 1.044409,0.46581 1.044409,1.0444 v 5.84869 c 0,0.5786 -0.465806,1.04441 -1.044409,1.04441 h -5.848683 c -0.578603,0 -1.044408,-0.46581 -1.044408,-1.04441 v -5.84869 c 0,-0.57859 0.465805,-1.0444 1.044408,-1.0444 z"
         id="path974" />
    </g>
  </g>
</svg>
