<?xml version="1.0" encoding="UTF-8" standalone="no"?>
<svg
   xmlns:dc="http://purl.org/dc/elements/1.1/"
   xmlns:cc="http://creativecommons.org/ns#"
   xmlns:rdf="http://www.w3.org/1999/02/22-rdf-syntax-ns#"
   xmlns:svg="http://www.w3.org/2000/svg"
   xmlns="http://www.w3.org/2000/svg"
   xmlns:sodipodi="http://sodipodi.sourceforge.net/DTD/sodipodi-0.dtd"
   xmlns:inkscape="http://www.inkscape.org/namespaces/inkscape"
   width="152"
   height="152"
   viewBox="0 0 40.216666 40.216667"
   version="1.1"
   id="svg833"
   inkscape:version="1.0.2-2 (e86c870879, 2021-01-15)"
   sodipodi:docname="logo.svg"
   inkscape:export-filename="D:\workspace\project-todo-x\artwork\icons\logo.png"
   inkscape:export-xdpi="96"
   inkscape:export-ydpi="96">
  <defs
     id="defs827" />
  <sodipodi:namedview
     id="base"
     pagecolor="#000000"
     bordercolor="#666666"
     borderopacity="1.0"
     inkscape:pageopacity="0"
     inkscape:pageshadow="2"
     inkscape:zoom="2.8284271"
     inkscape:cx="103.33062"
     inkscape:cy="118.88049"
     inkscape:document-units="px"
     inkscape:current-layer="layer1"
     showgrid="false"
     units="px"
     inkscape:window-width="1920"
     inkscape:window-height="1017"
     inkscape:window-x="-8"
     inkscape:window-y="-8"
     inkscape:window-maximized="1"
     inkscape:snap-global="true"
     inkscape:document-rotation="0"
     inkscape:pagecheckerboard="true"
     showguides="false"
     inkscape:guide-bbox="true">
    <sodipodi:guide
       position="10.583333,34.336198"
       orientation="-1,0"
       id="guide904"
       inkscape:label=""
       inkscape:locked="false"
       inkscape:color="rgb(0,0,255)" />
    <sodipodi:guide
       position="40.216667,57.067472"
       orientation="-1,0"
       id="guide906"
       inkscape:label=""
       inkscape:locked="false"
       inkscape:color="rgb(0,0,255)" />
    <sodipodi:guide
       position="63.984324,40.216667"
       orientation="0,1"
       id="guide908"
       inkscape:label=""
       inkscape:locked="false"
       inkscape:color="rgb(0,0,255)" />
    <sodipodi:guide
       position="60.523184,10.583333"
       orientation="0,1"
       id="guide910"
       inkscape:label=""
       inkscape:locked="false"
       inkscape:color="rgb(0,0,255)" />
  </sodipodi:namedview>
  <metadata
     id="metadata830">
    <rdf:RDF>
      <cc:Work
         rdf:about="">
        <dc:format>image/svg+xml</dc:format>
        <dc:type
           rdf:resource="http://purl.org/dc/dcmitype/StillImage" />
        <dc:title></dc:title>
      </cc:Work>
    </rdf:RDF>
  </metadata>
  <g
     inkscape:label="Layer 1"
     inkscape:groupmode="layer"
     id="layer1"
     transform="translate(0,-246.19998)">
    <path
       inkscape:connector-curvature="0"
       style="fill:#ffffff;fill-opacity:1;stroke:none;stroke-width:2.51593;stroke-linecap:round;stroke-linejoin:round;stroke-miterlimit:4;stroke-dasharray:none;stroke-opacity:0.188235;paint-order:fill markers stroke"
       d="M 5.2916663,246.19998 H 34.924999 c 2.931583,0 5.291667,2.36008 5.291667,5.29167 v 29.63333 c 0,2.93158 -2.360084,5.29167 -5.291667,5.29167 H 5.2916663 C 2.360083,286.41665 0,284.05656 0,281.12498 v -29.63333 c 0,-2.93159 2.360083,-5.29167 5.2916663,-5.29167 z"
       id="rect815" />
    <path
       inkscape:connector-curvature="0"
       style="fill:#e74c3c;fill-opacity:1;stroke:none;stroke-width:0.496563;stroke-linecap:round;stroke-linejoin:round;stroke-miterlimit:4;stroke-dasharray:none;stroke-opacity:0.188235;paint-order:fill markers stroke"
       d="m 6.3360733,251.49165 h 5.8486827 c 0.578603,0 1.044409,0.46581 1.044409,1.0444 v 5.84869 c 0,0.5786 -0.465806,1.04441 -1.044409,1.04441 H 6.3360733 c -0.578603,0 -1.044408,-0.46581 -1.044408,-1.04441 v -5.84869 c 0,-0.57859 0.465805,-1.0444 1.044408,-1.0444 z"
       id="path868" />
    <path
       inkscape:connector-curvature="0"
       style="fill:#3498db;fill-opacity:1;stroke:none;stroke-width:0.496563;stroke-linecap:round;stroke-linejoin:round;stroke-miterlimit:4;stroke-dasharray:none;stroke-opacity:0.188235;paint-order:fill markers stroke"
       d="m 17.18399,251.49165 h 5.848683 c 0.578603,0 1.044409,0.46581 1.044409,1.0444 v 5.84869 c 0,0.5786 -0.465806,1.04441 -1.044409,1.04441 H 17.18399 c -0.578603,0 -1.044408,-0.46581 -1.044408,-1.04441 v -5.84869 c 0,-0.57859 0.465805,-1.0444 1.044408,-1.0444 z"
       id="path960" />
    <path
       inkscape:connector-curvature="0"
       style="fill:#f1c40f;fill-opacity:1;stroke:none;stroke-width:0.496563;stroke-linecap:round;stroke-linejoin:round;stroke-miterlimit:4;stroke-dasharray:none;stroke-opacity:0.188235;paint-order:fill markers stroke"
       d="m 6.3360733,273.18749 h 5.8486827 c 0.578603,0 1.044409,0.46581 1.044409,1.0444 v 5.84869 c 0,0.5786 -0.465806,1.04441 -1.044409,1.04441 H 6.3360733 c -0.578603,0 -1.044408,-0.46581 -1.044408,-1.04441 v -5.84869 c 0,-0.57859 0.465805,-1.0444 1.044408,-1.0444 z"
       id="path964" />
    <path
       inkscape:connector-curvature="0"
       style="fill:#16a085;fill-opacity:1;stroke:none;stroke-width:0.496563;stroke-linecap:round;stroke-linejoin:round;stroke-miterlimit:4;stroke-dasharray:none;stroke-opacity:0.188235;paint-order:fill markers stroke"
       d="m 6.3360733,262.33957 h 5.8486827 c 0.578603,0 1.044409,0.46581 1.044409,1.0444 v 5.84869 c 0,0.5786 -0.465806,1.04441 -1.044409,1.04441 H 6.3360733 c -0.578603,0 -1.044408,-0.46581 -1.044408,-1.04441 v -5.84869 c 0,-0.57859 0.465805,-1.0444 1.044408,-1.0444 z"
       id="path966" />
    <path
       inkscape:connector-curvature="0"
       style="fill:#e74c3c;fill-opacity:1;stroke:none;stroke-width:0.496563;stroke-linecap:round;stroke-linejoin:round;stroke-miterlimit:4;stroke-dasharray:none;stroke-opacity:0.188235;paint-order:fill markers stroke"
       d="m 17.18399,262.33957 h 5.848683 c 0.578603,0 1.044409,0.46581 1.044409,1.0444 v 5.84869 c 0,0.5786 -0.465806,1.04441 -1.044409,1.04441 H 17.18399 c -0.578603,0 -1.044408,-0.46581 -1.044408,-1.04441 v -5.84869 c 0,-0.57859 0.465805,-1.0444 1.044408,-1.0444 z"
       id="path968" />
    <path
       inkscape:connector-curvature="0"
       style="fill:#d35400;fill-opacity:1;stroke:none;stroke-width:0.496563;stroke-linecap:round;stroke-linejoin:round;stroke-miterlimit:4;stroke-dasharray:none;stroke-opacity:0.188235;paint-order:fill markers stroke"
       d="m 28.031907,262.33957 h 5.848683 c 0.578603,0 1.044409,0.46581 1.044409,1.0444 v 5.84869 c 0,0.5786 -0.465806,1.04441 -1.044409,1.04441 h -5.848683 c -0.578603,0 -1.044408,-0.46581 -1.044408,-1.04441 v -5.84869 c 0,-0.57859 0.465805,-1.0444 1.044408,-1.0444 z"
       id="path970" />
    <path
       inkscape:connector-curvature="0"
       style="fill:#2c3e50;fill-opacity:1;stroke:none;stroke-width:0.496563;stroke-linecap:round;stroke-linejoin:round;stroke-miterlimit:4;stroke-dasharray:none;stroke-opacity:0.188235;paint-order:fill markers stroke"
       d="m 28.031907,273.18749 h 5.848683 c 0.578603,0 1.044409,0.46581 1.044409,1.0444 v 5.84869 c 0,0.5786 -0.465806,1.04441 -1.044409,1.04441 h -5.848683 c -0.578603,0 -1.044408,-0.46581 -1.044408,-1.04441 v -5.84869 c 0,-0.57859 0.465805,-1.0444 1.044408,-1.0444 z"
       id="path974" />
  </g>
</svg>
